<svg xmlns="http://www.w3.org/2000/svg" width="45" height="44.992" viewBox="0 0 45 44.992">
  <g id="Group_284" data-name="Group 284" transform="translate(-1114.542 -1398.004)">
    <path id="Path_429" data-name="Path 429" d="M1124.825,1398.093a1.73,1.73,0,0,0-.73.65,7.312,7.312,0,0,0-.149,1.582l-.044,1.406-2.681.044c-2.61.044-2.7.053-3.269.273a5.01,5.01,0,0,0-2.013,1.38,5.454,5.454,0,0,0-1.3,2.513c-.07.369-.1,5.4-.1,16.489,0,15.618,0,15.987.175,16.646a5.222,5.222,0,0,0,3.745,3.744c.668.176,1.037.176,18.58.176s17.912,0,18.58-.176a5.219,5.219,0,0,0,3.744-3.744c.176-.659.176-1.028.176-16.646,0-11.092-.027-16.12-.1-16.489a5.445,5.445,0,0,0-1.3-2.513,5.01,5.01,0,0,0-2.013-1.38c-.571-.22-.659-.229-3.269-.273l-2.681-.044-.044-1.424c-.035-1.256-.061-1.45-.228-1.661a1.371,1.371,0,0,0-1.828-.457c-.624.361-.712.616-.739,2.2l-.035,1.388h-20.531l-.035-1.388c-.027-1.266-.044-1.407-.237-1.714A1.413,1.413,0,0,0,1124.825,1398.093Zm-.879,8.332c0,1.749.009,1.837.2,2.118a1.357,1.357,0,0,0,1.046.677,1.376,1.376,0,0,0,1.31-.651c.2-.316.21-.422.237-2.162l.026-1.819h20.549l.026,1.819c.027,1.74.036,1.846.238,2.162a1.377,1.377,0,0,0,2.364-.026c.185-.281.193-.369.193-2.118v-1.837h2.4c2.329,0,2.4.009,2.839.211a2.824,2.824,0,0,1,.764.58c.572.668.589.791.589,4.412v3.234h-39.375v-3.234c0-3.621.018-3.744.589-4.412a2.83,2.83,0,0,1,.765-.58c.439-.2.509-.211,2.847-.211h2.391Zm32.766,20.724c-.027,11.057-.027,11.329-.2,11.672a2.855,2.855,0,0,1-1.142,1.143c-.343.176-.633.176-18.325.176s-17.983,0-18.326-.176a2.862,2.862,0,0,1-1.142-1.143c-.176-.343-.176-.615-.2-11.672l-.018-11.311h39.375Z" fill="#f5f1ea"/>
    <path id="Path_430" data-name="Path 430" d="M1145.347,1421.559c-.1.053-2.39,2.312-5.1,5.01l-4.922,4.9-2.189-2.988a24.863,24.863,0,0,0-2.461-3.129,1.615,1.615,0,0,0-1.38.027,1.712,1.712,0,0,0-.694,1.221,1.473,1.473,0,0,0,.158.572c.088.167,1.345,1.933,2.8,3.92,2.074,2.821,2.725,3.647,2.962,3.761a1.624,1.624,0,0,0,1.266.018c.131-.07,2.759-2.654,5.836-5.739,3.849-3.859,5.616-5.687,5.66-5.854a1.505,1.505,0,0,0-.7-1.679A1.79,1.79,0,0,0,1145.347,1421.559Z" fill="#f5f1ea"/>
  </g>
</svg>
