<svg xmlns="http://www.w3.org/2000/svg" width="50" height="47.098" viewBox="0 0 50 47.098">
  <g id="Group_282" data-name="Group 282" transform="translate(-808.375 -1396.951)">
    <path
      id="Path_427"
      data-name="Path 427"
      d="M845.178,1397.129a11.315,11.315,0,0,0-5.855,3.147l-.43.489-1.056-.244a21.766,21.766,0,0,0-5.4-.626,22.47,22.47,0,0,0-5.884.459c-8.974,1.789-15.953,8.143-17.732,16.139a18.339,18.339,0,0,0,1.72,12.629,22.443,22.443,0,0,0,3.6,5.543,9.532,9.532,0,0,1,1.818,2.59,10.95,10.95,0,0,1,1.016,4.448,2.59,2.59,0,0,0,1.74,2.248c.225.059,1.994.1,4.663.1,4.115,0,4.321-.01,4.741-.2a2.382,2.382,0,0,0,1.456-2.141c.049-.518.088-.636.235-.626l1.769.02,1.6.019.069.47a2.513,2.513,0,0,0,1.456,2.228l.5.235h4.4c4.213,0,4.418-.01,4.838-.2a2.432,2.432,0,0,0,1.2-1.115c.175-.332.215-.625.273-2.053a6.7,6.7,0,0,1,.352-2.5,7.45,7.45,0,0,1,2.288-3.226,22.73,22.73,0,0,0,3.792-4.516,26.582,26.582,0,0,0,1.613-3.206l.176-.459.85-.039a3.12,3.12,0,0,0,1.33-.274,3.962,3.962,0,0,0,1.769-1.789l.284-.606v-7.429l-.3-.635a3.812,3.812,0,0,0-3.676-2.151h-.361l-.636-1.32a19.543,19.543,0,0,0-4.213-5.865c-1.32-1.309-1.359-1.368-1.339-2.551a6.688,6.688,0,0,1,.919-2.981,2.565,2.565,0,0,0,.489-1.564,2.38,2.38,0,0,0-.685-1.77C847.808,1396.943,846.909,1396.767,845.178,1397.129Zm1.555,2.336a4.355,4.355,0,0,1-.431,1.046,7.856,7.856,0,0,0-.84,5.073,9.469,9.469,0,0,0,.264,1.144,4.86,4.86,0,0,0,.889.928,19.228,19.228,0,0,1,4.438,5.689c.293.587.528,1.095.528,1.134s.137.382.3.782c.411,1,.518,1.056,2.121,1.125l1.31.048.284.323.283.313v3.265c0,3.137-.01,3.264-.2,3.509-.274.342-.743.459-1.858.459-1.339,0-1.593.186-2,1.467a20.268,20.268,0,0,1-1.857,3.714,19.57,19.57,0,0,1-2.932,3.431c-1.867,1.828-2.473,2.669-3.04,4.154a9.183,9.183,0,0,0-.528,3.334v1.2h-7.723V1440.6c0-1.1-.136-1.515-.615-1.867-.235-.176-.372-.195-1.173-.156a43.385,43.385,0,0,1-4.624-.039l-1.388-.078-.371.342-.382.342-.029,1.231-.039,1.232H819.45l-.068-.909a12.585,12.585,0,0,0-.665-3.245,11.376,11.376,0,0,0-2.7-4.4,21.086,21.086,0,0,1-3.088-4.643,16.613,16.613,0,0,1-2.024-6.716,15.83,15.83,0,0,1,1.681-8.406c2.952-5.777,8.837-9.736,15.914-10.733a24.261,24.261,0,0,1,9.55.6c1.555.4,1.8.362,2.356-.332a8.77,8.77,0,0,1,5.308-3.255C846.723,1399.357,846.674,1399.357,846.733,1399.465Z"
      fill="#f5f1ea"
    />
    <path
      id="Path_428"
      data-name="Path 428"
      d="M831.259,1410.393c-.557.274-.694.616-.694,1.76v1.007h-.323a4.669,4.669,0,0,0-.88.146,4.26,4.26,0,0,0-.283,8.172,6.414,6.414,0,0,0,2.229.186,16.719,16.719,0,0,1,2.189.108,1.762,1.762,0,0,1,.469,3.3c-.41.195-.576.2-3.2.2-3.079,0-3.255.029-3.627.635a1.172,1.172,0,0,0,.431,1.672c.244.156.547.195,1.651.215l1.34.039v.987c0,1.056.107,1.369.576,1.691a1.362,1.362,0,0,0,1.271-.019c.46-.274.6-.665.6-1.74v-.929l.372-.059a4.553,4.553,0,0,0,2.747-1.231,4.241,4.241,0,0,0-1.115-6.843,6.649,6.649,0,0,0-3.294-.479c-2.092,0-2.483-.137-2.923-1a1.786,1.786,0,0,1,.675-2.307l.459-.264,2.884-.048c3.226-.059,3.294-.069,3.578-.734a.942.942,0,0,0-.02-.987c-.293-.606-.626-.723-2.082-.723h-1.281v-.988c0-1.143-.156-1.515-.723-1.788A.95.95,0,0,0,831.259,1410.393Z"
      fill="#f5f1ea"
    />
  </g>
</svg>