<svg xmlns="http://www.w3.org/2000/svg" width="35" height="45" viewBox="0 0 39.142 49.828">
  <g id="Group_290" data-name="Group 290" transform="translate(-510.137 -1394.172)">
    <g id="Group_289" data-name="Group 289">
      <path
        id="Path_432"
        data-name="Path 432"
        d="M528.209,1394.316a5.622,5.622,0,0,0-3.564,2.785l-.321.662h-1.957c-2.707,0-2.785.049-2.785,1.908v1.013h-2.454a16.391,16.391,0,0,0-3.076.146,5.175,5.175,0,0,0-3.807,3.827c-.078.369-.108,5.608-.108,17.973,0,17.117,0,17.477.2,18.091a4.75,4.75,0,0,0,3.632,3.145c.623.136,2.317.146,16.085.126l15.384-.029.652-.253a5.23,5.23,0,0,0,2.707-2.22c.516-1.022.487.02.487-18.9,0-19.113.029-17.954-.555-19.181a6.08,6.08,0,0,0-2.191-2.171c-1-.477-1.558-.555-4.236-.555h-2.463v-1.013c0-1.187-.078-1.45-.506-1.713-.292-.176-.5-.2-2.337-.2h-2.016l-.311-.662a5.8,5.8,0,0,0-2.347-2.347A6.789,6.789,0,0,0,528.209,1394.316Zm2.765,2.376a3.314,3.314,0,0,1,1.82,2.142c.341,1.188.517,1.266,2.844,1.266H537.4v4.771H522.016v-4.761l1.792-.03c2.151-.039,2.2-.058,2.6-1.11a3.317,3.317,0,0,1,1.062-1.723,2.829,2.829,0,0,1,2.288-.818A2.751,2.751,0,0,1,530.974,1396.692Zm-11.373,8c.03,1.558.049,1.7.244,1.987a1.386,1.386,0,0,0,.487.418c.2.078,2.716.107,9.493.088l9.211-.029.263-.244c.467-.428.535-.74.535-2.4V1403l2.512.039,2.5.029.555.273a2.618,2.618,0,0,1,1.276,1.276l.214.4.029,17.282c.02,13.417,0,17.38-.1,17.721a2.424,2.424,0,0,1-1.4,1.421c-.458.176-.993.185-15.462.215-16.3.029-15.627.048-16.5-.507a1.917,1.917,0,0,1-.877-1.178c-.087-.292-.107-4.771-.087-17.672.029-16.659.039-17.292.214-17.623a2.69,2.69,0,0,1,1.918-1.548c.234-.049,1.441-.088,2.687-.1l2.249-.009Z"
        fill="#f5f1ea"
      />
      <path
        id="Path_433"
        data-name="Path 433"
        d="M523.817,1410.946a27.021,27.021,0,0,0-2.19,1.948c-1.042.993-1.928,1.811-1.957,1.811a7.021,7.021,0,0,1-.828-.808c-.954-1-1.149-1.14-1.675-1.14a1.115,1.115,0,0,0-1.042,1.432c.049.292.322.623,1.48,1.791a13.7,13.7,0,0,0,1.7,1.558c.575.234.838.058,3.437-2.4,2.366-2.239,2.775-2.7,2.775-3.106a1.448,1.448,0,0,0-.691-1.042A.975.975,0,0,0,523.817,1410.946Z"
        fill="#f5f1ea"
      />
      <path
        id="Path_434"
        data-name="Path 434"
        d="M527.994,1413.887a1.178,1.178,0,0,0-.623,1.11,1.2,1.2,0,0,0,1.081,1.119c.234.03,3.495.049,7.244.03,7.419-.03,7.1-.01,7.448-.594a1.113,1.113,0,0,0-.379-1.6l-.331-.224h-7.069C529.27,1413.731,528.257,1413.76,527.994,1413.887Z"
        fill="#f5f1ea"
      />
      <path
        id="Path_435"
        data-name="Path 435"
        d="M523.72,1420.469c-.107.058-1.052.934-2.1,1.947l-1.909,1.831-.905-.925c-.944-.964-1.334-1.188-1.84-1.071a1.231,1.231,0,0,0-.847,1.47,25.476,25.476,0,0,0,3,3.223,1.382,1.382,0,0,0,1.11,0,71.749,71.749,0,0,0,5.2-5.044,1.214,1.214,0,0,0-.4-1.3A1.287,1.287,0,0,0,523.72,1420.469Z"
        fill="#f5f1ea"
      />
      <path
        id="Path_436"
        data-name="Path 436"
        d="M527.994,1423.37a1.219,1.219,0,0,0-.039,2.094c.429.224,14.274.224,14.742,0a1.17,1.17,0,0,0,.5-1.607c-.311-.6-.019-.584-7.857-.574C531.412,1423.283,528.1,1423.322,527.994,1423.37Z"
        fill="#f5f1ea"
      />
      <path
        id="Path_437"
        data-name="Path 437"
        d="M523.817,1429.942a24.3,24.3,0,0,0-2.19,1.938c-1.042.993-1.928,1.811-1.957,1.811a8.906,8.906,0,0,1-.828-.808c-.974-1.013-1.159-1.139-1.675-1.139a1.114,1.114,0,0,0-1.042,1.431c.049.292.322.623,1.48,1.792a13.749,13.749,0,0,0,1.7,1.557c.584.244.838.059,3.437-2.405,2.366-2.239,2.775-2.7,2.775-3.106a1.448,1.448,0,0,0-.691-1.041A.95.95,0,0,0,523.817,1429.942Z"
        fill="#f5f1ea"
      />
      <path
        id="Path_438"
        data-name="Path 438"
        d="M528.092,1432.815a1.41,1.41,0,0,0-.458.389,1.151,1.151,0,0,0,.594,1.85c.545.146,13.884.127,14.332-.029a1.347,1.347,0,0,0,.555-.448,1.115,1.115,0,0,0-.35-1.636l-.331-.224-7.069.01C531.48,1432.727,528.209,1432.766,528.092,1432.815Z"
        fill="#f5f1ea"
      />
    </g>
  </g>
</svg>