<svg xmlns="http://www.w3.org/2000/svg" width="28" height="28" viewBox="0 0 28 28">
  <path id="Path_303" data-name="Path 303" d="M286.019,1604.531h-.72v-.63a2.024,2.024,0,1,0-4.047,0v.63H276.46v-.63a2.024,2.024,0,1,0-4.047,0v.63h-4.792v-.63a2.024,2.024,0,1,0-4.048,0v.63h-.719a2.436,2.436,0,0,0-2.418,2.447v20.429a2.436,2.436,0,0,0,2.418,2.446h23.165a2.435,2.435,0,0,0,2.417-2.446v-20.429A2.435,2.435,0,0,0,286.019,1604.531Zm-3.563-.63a.82.82,0,1,1,1.639,0v4.051a.82.82,0,1,1-1.639,0Zm-8.839,0a.82.82,0,1,1,1.639,0v4.051a.82.82,0,1,1-1.639,0Zm-8.84,0a.82.82,0,1,1,1.64,0v4.051a.82.82,0,1,1-1.64,0Zm22.455,23.506a1.221,1.221,0,0,1-1.213,1.227H262.854a1.222,1.222,0,0,1-1.214-1.227v-15.058h25.592Z" transform="translate(-260.436 -1601.853)" fill="#fff"/>
  <path id="Path_304" data-name="Path 304" d="M264.012,1616.576h4a.609.609,0,0,0,0-1.218h-4a.609.609,0,0,0,0,1.218Z" transform="translate(-260.436 -1601.853)" fill="#fff"/>
  <path id="Path_305" data-name="Path 305" d="M264.012,1625.5h4a.61.61,0,0,0,0-1.219h-4a.61.61,0,0,0,0,1.219Z" transform="translate(-260.436 -1601.853)" fill="#fff"/>
  <path id="Path_306" data-name="Path 306" d="M264.012,1621.039h4a.61.61,0,0,0,0-1.219h-4a.61.61,0,0,0,0,1.219Z" transform="translate(-260.436 -1601.853)" fill="#fff"/>
  <path id="Path_307" data-name="Path 307" d="M280.857,1616.576h4a.609.609,0,0,0,0-1.218h-4a.609.609,0,0,0,0,1.218Z" transform="translate(-260.436 -1601.853)" fill="#fff"/>
  <path id="Path_308" data-name="Path 308" d="M280.857,1625.5h4a.61.61,0,0,0,0-1.219h-4a.61.61,0,0,0,0,1.219Z" transform="translate(-260.436 -1601.853)" fill="#fff"/>
  <path id="Path_309" data-name="Path 309" d="M280.857,1621.039h4a.61.61,0,0,0,0-1.219h-4a.61.61,0,0,0,0,1.219Z" transform="translate(-260.436 -1601.853)" fill="#fff"/>
  <path id="Path_310" data-name="Path 310" d="M276.438,1624.283h-4a.61.61,0,0,0,0,1.219h4a.61.61,0,0,0,0-1.219Z" transform="translate(-260.436 -1601.853)" fill="#fff"/>
  <path id="Path_311" data-name="Path 311" d="M274.148,1622.7a.6.6,0,0,0,.576,0,8.775,8.775,0,0,0,3.314-2.87,3.578,3.578,0,0,0,.545-2.813,2.609,2.609,0,0,0-2.469-2.046,2.394,2.394,0,0,0-1.678.715,2.39,2.39,0,0,0-1.678-.715,2.607,2.607,0,0,0-2.467,2.046,3.568,3.568,0,0,0,.544,2.813A8.771,8.771,0,0,0,274.148,1622.7Z" transform="translate(-260.436 -1601.853)" fill="#fff"/>
</svg>
