<svg xmlns="http://www.w3.org/2000/svg" width="30.868" height="27.45" viewBox="0 0 30.868 27.45">
  <path id="Path_314" data-name="Path 314" d="M337.577,1608.71c-1.093-3.975-4.838-7.2-9.119-6.47a10.805,10.805,0,0,0-5.978,3.6,9.858,9.858,0,0,0-7.287-3.715,8.388,8.388,0,0,0-7.422,5.195,11.2,11.2,0,0,0,.221,8.644c2.251,5.509,7.284,9.489,12.234,12.483.638.386,1.658,1.294,2.451,1.1a11.748,11.748,0,0,0,2.927-1.7,43.993,43.993,0,0,0,4.573-3.317,25.078,25.078,0,0,0,5.561-6.284A12.884,12.884,0,0,0,337.577,1608.71Zm-2.771,7.341c-2.5,5.161-7.515,8.745-12.377,11.527-5.119-2.928-10.75-6.906-12.851-12.652-1.225-3.349-1.053-7.1,1.9-9.539,3.324-2.737,8.022-.918,10.147,2.435a.942.942,0,0,0,1.592.019c-.007.01-.007.011.015-.016h0l0,0v0c.089-.109.177-.218.269-.324a13.673,13.673,0,0,1,1-1.052,9.085,9.085,0,0,1,3.652-2.23c3.535-1.006,6.712,1.7,7.616,4.992A10.656,10.656,0,0,1,334.806,1616.051Z" transform="translate(-307.002 -1602.128)" fill="#fff"/>
</svg>
