<svg xmlns="http://www.w3.org/2000/svg" width="23.779" height="23.774" viewBox="0 0 23.779 23.774">
  <g id="Group_222" data-name="Group 222" transform="translate(-84.861 -3939.09)">
    <path id="Path_246" data-name="Path 246" d="M106.131,3939.476c-1.036.209-1.933.408-1.989.441a.563.563,0,0,0-.218.516c.042.181.2.311.883.72.334.195.613.367.622.376a2.727,2.727,0,0,1-.409.455l-.432.437-.241-.107a6.272,6.272,0,0,0-1.306-.376,5.178,5.178,0,0,0-1.208-.051,4.856,4.856,0,0,0-2,.39,6.37,6.37,0,0,0-2.4,1.682l-.687.669-.739-.725a6.152,6.152,0,0,0-3.41-1.942,7.248,7.248,0,0,0-2.151-.018,5.717,5.717,0,0,0-4.581,4.237,3.97,3.97,0,0,0-.149,1.361,5.152,5.152,0,0,0,.581,2.653c.39.785.571.99,2.848,3.285l2.188,2.193-.45.45-.446.446-1.009-.33c-.552-.185-1.045-.334-1.1-.334a.568.568,0,0,0-.218.065c-.219.116-3.206,3.15-3.239,3.289a.619.619,0,0,0,0,.242c.065.255.167.311,1.259.678l1.059.358.358,1.059c.367,1.092.423,1.194.678,1.259a.6.6,0,0,0,.237,0,37.252,37.252,0,0,0,3.34-3.345,3.71,3.71,0,0,0-.311-1.171l-.344-1.036.456-.451.45-.455,1.636,1.63c.985.981,1.728,1.682,1.863,1.761a2.382,2.382,0,0,0,2.476-.069c.428-.284,8.442-8.34,8.739-8.781a5.209,5.209,0,0,0,1.008-3.369,4.894,4.894,0,0,0-.325-1.965,6,6,0,0,0-1.686-2.4l-.284-.232.335-.339a4.162,4.162,0,0,1,.362-.335,6.143,6.143,0,0,1,.409.646c.409.683.52.818.711.864a.516.516,0,0,0,.53-.265c.069-.158.813-3.833.813-4.028a.563.563,0,0,0-.47-.418C108.082,3939.095,107.167,3939.267,106.131,3939.476Zm1.347.831c0,.07-.274,1.464-.307,1.561-.009.037-.13-.116-.283-.353a1.491,1.491,0,0,0-.678-.683,2.994,2.994,0,0,1-.4-.265c.279-.069,1.487-.311,1.566-.315C107.432,3940.247,107.478,3940.275,107.478,3940.307Zm-15.188,2.611a5.239,5.239,0,0,1,2.058.851c.158.116.7.617,1.213,1.124.948.934,1.032.994,1.315.938a7.427,7.427,0,0,0,1.147-1.026,8.481,8.481,0,0,1,1.408-1.232,5.02,5.02,0,0,1,3.266-.683,4.662,4.662,0,0,1,1.074.279c.018.014-.656.72-1.5,1.561l-1.529,1.529-.032-.205a.487.487,0,0,0-.5-.464.383.383,0,0,0-.329.125c-.163.163-.191.3-.131.66a2,2,0,0,0,1.613,1.635,1.367,1.367,0,0,0,.422.019.509.509,0,0,0,.391-.488c0-.265-.154-.418-.479-.483l-.265-.056,1.668-1.663,1.668-1.668.307.246a4.8,4.8,0,0,1,.831,6.5c-.32.455-8.228,8.367-8.534,8.539a.991.991,0,0,1-.632.13,1.1,1.1,0,0,1-.6-.111,21.211,21.211,0,0,1-1.8-1.691L92.75,3955.7l.846-.846c.469-.469.864-.85.878-.85s.042.1.056.214a.477.477,0,0,0,.711.413c.2-.107.269-.283.241-.65a1.974,1.974,0,0,0-1.728-1.729c-.372-.032-.544.033-.655.237a.477.477,0,0,0,.413.711c.116.014.214.037.214.056s-.381.409-.85.878l-.846.846-2.118-2.124c-1.19-1.194-2.212-2.262-2.333-2.434a4.818,4.818,0,0,1-.107-5.454,4.733,4.733,0,0,1,3.071-2.045A6.159,6.159,0,0,1,92.29,3942.918Zm-3.215,14.245.572.19-.535.544c-.562.571-.636.669-.636.864a.493.493,0,0,0,.711.437,6.921,6.921,0,0,0,.641-.586l.544-.534.195.59.195.59-1.083,1.087c-.6.6-1.1,1.088-1.11,1.088a6.319,6.319,0,0,1-.274-.753,3.085,3.085,0,0,0-.372-.878,2.9,2.9,0,0,0-.864-.367c-.409-.135-.753-.256-.767-.265s2.142-2.2,2.184-2.2C88.49,3956.972,88.759,3957.061,89.075,3957.163Z" fill="#814242"/>
  </g>
</svg>
