<svg xmlns="http://www.w3.org/2000/svg" width="30.711" height="45" viewBox="0 0 30.711 45">
  <path id="Path_262" data-name="Path 262" d="M579.113,234.264h-.131a.791.791,0,0,1-.721-.465c-.51-1.126-1.966-2.214-3.25-3.174a21.653,21.653,0,0,1-1.89-1.519,4.5,4.5,0,0,1-1.1-4.425,3.576,3.576,0,0,1,2.9-2.554,4.437,4.437,0,0,1,.754-.067,4.189,4.189,0,0,1,3.369,1.841,4.187,4.187,0,0,1,3.372-1.841,4.425,4.425,0,0,1,.753.067,3.576,3.576,0,0,1,2.9,2.554,4.505,4.505,0,0,1-1.1,4.425,21.52,21.52,0,0,1-1.891,1.519c-1.284.96-2.739,2.048-3.249,3.174A.791.791,0,0,1,579.113,234.264Zm-3.436-10.622a2.762,2.762,0,0,0-.479.044,1.99,1.99,0,0,0-1.659,1.451,2.95,2.95,0,0,0,.671,2.821,20.757,20.757,0,0,0,1.748,1.4,16.366,16.366,0,0,1,3.089,2.734,16.433,16.433,0,0,1,3.089-2.734,20.639,20.639,0,0,0,1.749-1.4,2.95,2.95,0,0,0,.671-2.821,1.99,1.99,0,0,0-1.66-1.451,2.742,2.742,0,0,0-.478-.044c-1.821,0-2.6,2.073-2.627,2.162a.791.791,0,0,1-.743.521h0a.789.789,0,0,1-.744-.52C578.272,225.717,577.495,223.642,575.677,223.642Z" transform="translate(-563.692 -205.405)" fill="#fff"/>
  <path id="Path_263" data-name="Path 263" d="M593.612,250.4H564.483a.791.791,0,0,1-.791-.791V212.361a.759.759,0,0,1,.018-.185.771.771,0,0,1,.145-.312.783.783,0,0,1,.262-.222.76.76,0,0,1,.176-.066l22.6-6.143a.792.792,0,0,1,1,.764v5.356h5.721a.791.791,0,0,1,.791.791v37.27A.791.791,0,0,1,593.612,250.4Zm-28.338-1.582h27.547V213.135h-5.7a.321.321,0,0,1-.044,0h-21.8Zm5.137-37.27h15.9v-4.321Z" transform="translate(-563.692 -205.405)" fill="#fff"/>
</svg>
