<svg xmlns="http://www.w3.org/2000/svg" width="23.778" height="23.774" viewBox="0 0 23.778 23.774">
  <g id="Group_217" data-name="Group 217" transform="translate(-83.023 -2716.062)">
    <path id="Path_243" data-name="Path 243" d="M104.293,2716.447c-1.037.209-1.933.409-1.989.442a.563.563,0,0,0-.218.515c.042.182.2.312.882.721.335.2.614.367.623.376a2.779,2.779,0,0,1-.409.455l-.432.437-.242-.107a6.258,6.258,0,0,0-1.305-.376,5.151,5.151,0,0,0-1.208-.051,4.856,4.856,0,0,0-2,.39,6.354,6.354,0,0,0-2.4,1.682l-.687.669-.739-.725a6.144,6.144,0,0,0-3.41-1.942,7.273,7.273,0,0,0-2.151-.019,5.72,5.72,0,0,0-4.581,4.238,3.967,3.967,0,0,0-.149,1.361,5.132,5.132,0,0,0,.581,2.653c.39.785.571.989,2.848,3.284l2.188,2.193-.451.451-.446.446-1.008-.33c-.553-.186-1.045-.334-1.1-.334a.581.581,0,0,0-.219.065c-.218.116-3.205,3.15-3.238,3.289a.64.64,0,0,0-.005.242c.066.255.168.311,1.26.678l1.059.358.358,1.059c.367,1.092.422,1.194.678,1.259a.573.573,0,0,0,.237,0,36.995,36.995,0,0,0,3.34-3.345,3.713,3.713,0,0,0-.311-1.17l-.344-1.037.456-.45.45-.456,1.636,1.631c.985.981,1.728,1.682,1.863,1.761a2.382,2.382,0,0,0,2.476-.07c.427-.283,8.442-8.339,8.739-8.781a5.205,5.205,0,0,0,1.008-3.368,4.895,4.895,0,0,0-.325-1.965,5.989,5.989,0,0,0-1.686-2.4l-.284-.232.335-.34a4.079,4.079,0,0,1,.362-.334,6.143,6.143,0,0,1,.409.646c.409.683.52.817.711.864a.515.515,0,0,0,.529-.265c.07-.158.813-3.833.813-4.028a.562.562,0,0,0-.469-.418C106.244,2716.066,105.329,2716.238,104.293,2716.447Zm1.347.832c0,.07-.274,1.464-.307,1.561-.009.037-.13-.116-.283-.353a1.491,1.491,0,0,0-.678-.683,3.039,3.039,0,0,1-.4-.265c.279-.069,1.487-.311,1.566-.316C105.593,2717.219,105.64,2717.247,105.64,2717.279Zm-15.188,2.611a5.26,5.26,0,0,1,2.058.85c.158.116.7.618,1.213,1.125.948.933,1.031.994,1.315.938a7.444,7.444,0,0,0,1.147-1.027,8.424,8.424,0,0,1,1.408-1.231,5.018,5.018,0,0,1,3.266-.683,4.637,4.637,0,0,1,1.073.279c.019.014-.655.72-1.5,1.561l-1.528,1.529-.033-.205a.485.485,0,0,0-.5-.464.384.384,0,0,0-.33.125c-.162.163-.19.3-.13.66a2,2,0,0,0,1.612,1.635,1.374,1.374,0,0,0,.423.019.508.508,0,0,0,.39-.488c0-.265-.153-.418-.478-.483l-.265-.056,1.668-1.663,1.668-1.668.307.246a4.8,4.8,0,0,1,.831,6.5c-.32.455-8.228,8.367-8.535,8.539a.987.987,0,0,1-.631.13,1.092,1.092,0,0,1-.6-.111,21.23,21.23,0,0,1-1.8-1.691l-1.589-1.589.846-.846c.469-.469.864-.85.878-.85s.042.1.055.214a.477.477,0,0,0,.711.413c.205-.107.27-.283.242-.65a1.976,1.976,0,0,0-1.728-1.729c-.372-.032-.544.033-.655.237a.477.477,0,0,0,.413.711c.116.014.214.037.214.056s-.381.409-.85.878l-.846.845-2.119-2.123c-1.189-1.194-2.211-2.262-2.332-2.434a4.819,4.819,0,0,1-.107-5.455,4.732,4.732,0,0,1,3.071-2.044A6.088,6.088,0,0,1,90.452,2719.89Zm-3.215,14.245.572.19-.535.544c-.562.571-.636.669-.636.864a.493.493,0,0,0,.711.437,7.168,7.168,0,0,0,.641-.586l.543-.534.195.59.2.59-1.083,1.087c-.6.6-1.1,1.087-1.11,1.087a6.268,6.268,0,0,1-.274-.752,3.092,3.092,0,0,0-.372-.878,2.911,2.911,0,0,0-.864-.367c-.409-.135-.753-.256-.767-.265s2.142-2.2,2.184-2.2C86.652,2733.944,86.921,2734.032,87.237,2734.135Z" fill="#dba8a1"/>
  </g>
</svg>
