<svg xmlns="http://www.w3.org/2000/svg" width="45" height="39.659" viewBox="0 0 45 39.659">
  <path id="Path_266" data-name="Path 266" d="M964.009,208.21a5.642,5.642,0,0,0-2.251,1.231,5.8,5.8,0,0,0-1.4,2.145l-.194.581-.026,15.519c-.018,15.265-.018,15.529.158,16.206a5.069,5.069,0,0,0,2.515,3.245c1.222.641-.352.6,19.819.6s18.6.044,19.82-.6a5.069,5.069,0,0,0,2.515-3.245c.175-.677.175-.941.158-16.206l-.026-15.519-.194-.581a5.835,5.835,0,0,0-1.4-2.154,5.963,5.963,0,0,0-2.392-1.257C1000.385,208.025,964.633,208.052,964.009,208.21Zm37.273,1.609a3.735,3.735,0,0,1,2.111,2.1,7.189,7.189,0,0,1,.237,2.638l.035,2.137H961.617v-1.741c0-.95.035-1.978.079-2.277a3.585,3.585,0,0,1,2.656-2.964c.413-.114,2.945-.132,18.456-.114l17.982.018Zm2.366,20.611c0,6.762-.036,12.407-.079,12.706a3.617,3.617,0,0,1-1.654,2.55c-.932.589.379.554-19.283.554s-18.351.035-19.283-.554a3.616,3.616,0,0,1-1.653-2.55c-.044-.3-.079-5.944-.079-12.706V218.278h42.031Z" transform="translate(-960.132 -208.076)" fill="#fff"/>
  <path id="Path_267" data-name="Path 267" d="M964.747,210.98a2.388,2.388,0,0,0-1.283,1.257,2.489,2.489,0,0,0,.131,2.137,2.412,2.412,0,0,0,2.471,1.09,2.346,2.346,0,1,0-1.319-4.484Zm1.223,1.45a.814.814,0,1,1-.66-.035C965.609,212.281,965.635,212.281,965.97,212.43Z" transform="translate(-960.132 -208.076)" fill="#fff"/>
  <path id="Path_268" data-name="Path 268" d="M970.366,210.918a2.354,2.354,0,0,0-1.416,3.183,2.263,2.263,0,0,0,2.119,1.389,2.311,2.311,0,0,0,2.366-2.312,2.071,2.071,0,0,0-.6-1.565A2.357,2.357,0,0,0,970.366,210.918Zm1.055,1.5a.8.8,0,0,1,.255,1.319.816.816,0,0,1-1.354-.335.834.834,0,0,1,.528-1.046C971.052,212.29,971.1,212.29,971.421,212.422Z" transform="translate(-960.132 -208.076)" fill="#fff"/>
  <path id="Path_269" data-name="Path 269" d="M975.642,211.006a2.283,2.283,0,0,0-1.389,2.189,2.235,2.235,0,0,0,1.881,2.26,2.153,2.153,0,0,0,2.111-.668,1.925,1.925,0,0,0,.65-1.609,2.015,2.015,0,0,0-.659-1.671A2.34,2.34,0,0,0,975.642,211.006Zm1.486,1.539a.784.784,0,0,1,.229.861.759.759,0,0,1-.8.563.814.814,0,1,1,.572-1.424Z" transform="translate(-960.132 -208.076)" fill="#fff"/>
  <path id="Path_270" data-name="Path 270" d="M966.242,223.87l-.229.238V241.2l.229.211.229.211h14.42l.211-.246.211-.246V224.108l-.228-.238-.238-.228H966.48Zm13.559,8.758-.026,7.5-6.129.027-6.138.017V225.136h12.311Z" transform="translate(-960.132 -208.076)" fill="#fff"/>
  <path id="Path_271" data-name="Path 271" d="M985.833,223.853a.687.687,0,0,0,0,1.072l.237.211h12.486l.212-.219a.746.746,0,0,0,0-1.056l-.212-.219H986.07Z" transform="translate(-960.132 -208.076)" fill="#fff"/>
  <path id="Path_272" data-name="Path 272" d="M986.009,229.216a.726.726,0,0,0,.114,1.372c.238.07,2.154.088,6.375.07l6.032-.026.229-.211a.726.726,0,0,0,0-1.073l-.229-.211-6.12-.017C987.416,229.1,986.229,229.12,986.009,229.216Z" transform="translate(-960.132 -208.076)" fill="#fff"/>
  <path id="Path_273" data-name="Path 273" d="M985.833,234.844a.721.721,0,0,0-.035,1.064l.2.22h6.261c6.2,0,6.269,0,6.5-.185a.824.824,0,0,0,.176-.914c-.159-.4-.194-.4-6.709-.4H986.07Z" transform="translate(-960.132 -208.076)" fill="#fff"/>
  <path id="Path_274" data-name="Path 274" d="M985.859,240.3a.785.785,0,0,0-.219.9c.228.475.079.466,6.647.466,6.454,0,6.489,0,6.648-.4a.9.9,0,0,0-.15-.906l-.2-.194H992.3C987.205,240.181,985.991,240.2,985.859,240.3Z" transform="translate(-960.132 -208.076)" fill="#fff"/>
</svg>
