<svg xmlns="http://www.w3.org/2000/svg" width="45" height="36.665" viewBox="0 0 45 36.665">
  <g id="Group_285" data-name="Group 285" transform="translate(-762.81 -209.573)">
    <path id="Path_264" data-name="Path 264" d="M807.046,246.238H792.693a.763.763,0,0,1-.764-.771c.011-1.178-.121-4.578-.853-6.141-.945-2.017-1.786-2.63-4.5-3.28a14.182,14.182,0,0,1-1.58-.473.764.764,0,0,1,0-1.434c2.545-.934,2.95-2.236,2.907-3.342a12.292,12.292,0,0,1-3.329-4.271.771.771,0,0,1,0-.676,13.433,13.433,0,0,0,1.416-5.8,11.316,11.316,0,0,0-1.379-5.985.767.767,0,0,1,0-.807c1.517-2.443,4.033-3.681,7.477-3.681,5.944,0,9.086,3.621,9.086,10.473a14.264,14.264,0,0,1-4.906,10.755c-.06,1,.2,2.773,4.32,3.759,3.139.752,5.061,1.63,6.226,4.118,1.03,2.2,1,6.617,1,6.8A.763.763,0,0,1,807.046,246.238Zm-13.6-1.528h12.825a16.787,16.787,0,0,0-.844-5.384c-.913-1.95-2.4-2.611-5.2-3.28-3.927-.941-5.763-2.87-5.454-5.734a.761.761,0,0,1,.314-.539c2.639-1.894,4.554-5.985,4.554-9.727,0-5.936-2.543-8.946-7.558-8.946-2.731,0-4.676.847-5.929,2.586a13.3,13.3,0,0,1,1.359,6.36,14.915,14.915,0,0,1-1.407,6.131,10.258,10.258,0,0,0,2.973,3.6.763.763,0,0,1,.313.538,4.362,4.362,0,0,1-2.046,4.353c2.872.742,4.006,1.655,5.11,4.014A18.033,18.033,0,0,1,793.448,244.71Z" fill="#fff"/>
    <path id="Path_265" data-name="Path 265" d="M793.449,246.238H762.818l-.008-.756c0-.187-.033-4.606,1-6.8,1.176-2.511,3.059-3.385,6.122-4.118,3.78-.9,4.367-2.441,4.315-3.764a14.488,14.488,0,0,1-4.9-10.75c0-6.852,3.142-10.473,9.087-10.473s9.086,3.621,9.086,10.473a14.261,14.261,0,0,1-4.907,10.755c-.059,1,.2,2.773,4.321,3.759,3.184.762,4.372,1.647,5.529,4.118,1.03,2.2,1,6.617,1,6.8Zm-29.1-1.528H791.92a16.785,16.785,0,0,0-.844-5.384c-.945-2.017-1.786-2.63-4.5-3.28-3.928-.941-5.763-2.87-5.455-5.734l.037-.34.277-.2c2.639-1.894,4.555-5.985,4.555-9.727,0-5.936-2.543-8.946-7.558-8.946s-7.559,3.01-7.559,8.946c0,3.741,1.915,7.832,4.554,9.727l.277.2.037.339c.311,2.865-1.524,4.794-5.454,5.735-2.772.663-4.165,1.294-5.095,3.28A16.771,16.771,0,0,0,764.346,244.71Z" fill="#fff"/>
  </g>
</svg>
