<svg xmlns="http://www.w3.org/2000/svg" width="28.984" height="29.008" viewBox="0 0 28.984 29.008">
  <path id="Path_312" data-name="Path 312" d="M227.407,1601.384a14.746,14.746,0,0,0-7.657,3.052,16.716,16.716,0,0,0-3.369,3.755,19.749,19.749,0,0,0-1.3,2.671,14.743,14.743,0,0,0-.006,9.954,22.239,22.239,0,0,0,1.152,2.434l.164.283-.811,2.944c-.448,1.622-.817,3.017-.817,3.1a.541.541,0,0,0,.454.483,19.922,19.922,0,0,0,3.057-.857c1.571-.482,2.887-.879,2.927-.879a7.045,7.045,0,0,1,.828.391,14.553,14.553,0,0,0,11.673.766,19.7,19.7,0,0,0,2.671-1.305,15.682,15.682,0,0,0,4.674-4.673,19.889,19.889,0,0,0,1.3-2.672,17.667,17.667,0,0,0,.726-2.83,11.569,11.569,0,0,0,.119-2.155,12.076,12.076,0,0,0-.443-3.681,12.93,12.93,0,0,0-1.021-2.7,14.668,14.668,0,0,0-6.636-6.636,14.061,14.061,0,0,0-4.2-1.333A19.493,19.493,0,0,0,227.407,1601.384Zm3.488,1.243a13.534,13.534,0,0,1,11.072,11.207,18.441,18.441,0,0,1,0,4.027,13.536,13.536,0,0,1-11.072,11.208,16.792,16.792,0,0,1-3.5.113,13.584,13.584,0,0,1-5.5-1.8,2.061,2.061,0,0,0-.567-.249c-.074,0-1.265.346-2.649.771s-2.524.766-2.535.755.3-1.157.686-2.547a21.917,21.917,0,0,0,.687-2.723,2.42,2.42,0,0,0-.29-.629,13.96,13.96,0,0,1-1.826-5.383,15.629,15.629,0,0,1,.085-3.715,13.524,13.524,0,0,1,11.974-11.168c.107-.011.771-.017,1.474-.006A11.294,11.294,0,0,1,230.9,1602.627Z" transform="translate(-214.208 -1601.349)" fill="#fff"/>
  <path id="Path_313" data-name="Path 313" d="M222.557,1606.829c-.692.074-.839.137-1.134.466a7.689,7.689,0,0,0-2,5.15,6.968,6.968,0,0,0,.812,2.9,17.63,17.63,0,0,0,6.658,7.578,11.6,11.6,0,0,0,5.082,1.667c3.443.312,5.587-1.06,6.353-4.078.147-.578.17-.868.079-1.032a5.112,5.112,0,0,0-.839-.573c-.426-.261-1.231-.76-1.792-1.117s-1.146-.709-1.305-.783a1.5,1.5,0,0,0-1.151-.04c-.205.1-.25.148-.817.913a10.418,10.418,0,0,1-1.429,1.549c-.131.073-.295.011-.919-.341a18.944,18.944,0,0,1-4.124-3.267,4.606,4.606,0,0,1-1.18-1.934,2.894,2.894,0,0,1,.426-.578,2.531,2.531,0,0,0,.851-2.241,18.118,18.118,0,0,0-2.037-3.947C223.845,1606.841,223.346,1606.75,222.557,1606.829Zm1.05,1.543c.153.255.544.987.862,1.617.686,1.367.709,1.491.385,2.025a7.224,7.224,0,0,1-.657.833c-.5.539-.551.658-.477,1.1.267,1.582,2.184,3.726,4.929,5.518,1.276.84,2.093,1.192,2.513,1.1a5.089,5.089,0,0,0,2.178-1.928l.5-.675.188.073c.1.046.635.369,1.191.726s1.236.777,1.514.948.522.312.539.323a5.429,5.429,0,0,1-.737,1.934,3.526,3.526,0,0,1-1.271,1.055,4.385,4.385,0,0,1-2.116.471,11.046,11.046,0,0,1-8.054-3.307,18.31,18.31,0,0,1-4.191-6.1,5.236,5.236,0,0,1,.306-4.458,9.239,9.239,0,0,1,1.021-1.56c.1-.091.3-.13.788-.142l.295-.011Z" transform="translate(-214.208 -1601.349)" fill="#fff"/>
</svg>
