<svg xmlns="http://www.w3.org/2000/svg" width="40.4" height="45" viewBox="0 0 40.4 45">
  <path id="Path_275" data-name="Path 275" d="M168.358,239.78a13.712,13.712,0,1,1,13.712-13.712A13.727,13.727,0,0,1,168.358,239.78Zm0-25.952a12.24,12.24,0,1,0,12.239,12.24A12.253,12.253,0,0,0,168.358,213.828Z" transform="translate(-154.646 -205.405)" fill="#fff"/>
  <path id="Path_276" data-name="Path 276" d="M181.334,250.4a13.712,13.712,0,1,1,13.712-13.712A13.727,13.727,0,0,1,181.334,250.4Zm0-25.951a12.24,12.24,0,1,0,12.24,12.239A12.252,12.252,0,0,0,181.334,224.454Z" transform="translate(-154.646 -205.405)" fill="#fff"/>
  <path id="Path_278" data-name="Path 278" d="M173.574,207.585l-1.746-1.937a.741.741,0,0,0-.547-.243h-5.846a.741.741,0,0,0-.547.243l-1.746,1.937a.736.736,0,0,0,.008.995l4.667,5.014.008-.007a.729.729,0,0,0,.534.241.741.741,0,0,0,.54-.234l4.667-5.014A.735.735,0,0,0,173.574,207.585Zm-2.238,1.229-.769.826-2.209,2.46-2.857-3.156-.121-.13h0l-.721-.8,1.1-1.14h5.19l.419.464h-.01l.628.714-.681.758Z" transform="translate(-154.646 -205.405)" fill="#fff"/>
</svg>
