<svg xmlns="http://www.w3.org/2000/svg" width="65" height="20.21" viewBox="0 0 65 20.21">
  <path
    id="Path_265"
    data-name="Path 265"
    d="M202.315,1410.487a9.443,9.443,0,0,0-3.391,1.1,7.841,7.841,0,0,0-2.35,1.8,8.631,8.631,0,0,0-2.375,3.531,10.09,10.09,0,0,0,0,7.163,8.625,8.625,0,0,0,2.375,3.531,7.862,7.862,0,0,0,2.35,1.8,14.227,14.227,0,0,0,2.222.889l1.08.292h47.628l1.08-.292a9.678,9.678,0,0,0,4.521-2.629,9.454,9.454,0,0,0,2.922-5.373,10.116,10.116,0,0,0-.5-5.385,8.632,8.632,0,0,0-2.375-3.531,7.846,7.846,0,0,0-2.375-1.816,15.035,15.035,0,0,0-2.159-.889l-.991-.28-23.433-.012C213.657,1410.385,202.759,1410.423,202.315,1410.487Zm48.111,1.587a8.9,8.9,0,0,1,5.7,4.5,8.717,8.717,0,0,1,0,7.875,8.963,8.963,0,0,1-3.823,3.8c-1.981.966-.165.9-26.328.9-26.2,0-24.208.064-26.215-.9a8.933,8.933,0,0,1-3.81-3.8,8.717,8.717,0,0,1,0-7.875,9.006,9.006,0,0,1,3.81-3.8c1.969-.953-.026-.877,26.215-.889C246.73,1411.871,249.7,1411.9,250.426,1412.074Z"
    transform="translate(-193.542 -1410.395)"
    fill="#f5f1ea"
  />
  <path
    id="Path_266"
    data-name="Path 266"
    d="M244.444,1415.084a5,5,0,0,0-3.137,5.487,5.057,5.057,0,0,0,7.379,3.645l.6-.317,1.194,1.155c.952.94,1.257,1.169,1.562,1.169.47,0,.673-.2.673-.673,0-.305-.229-.61-1.169-1.562l-1.168-1.194.267-.47a5.128,5.128,0,0,0-2.21-7.1,3.968,3.968,0,0,0-2.007-.394A3.635,3.635,0,0,0,244.444,1415.084Zm3.556,1.55a3.421,3.421,0,0,1,1.842,3.124,2.755,2.755,0,0,1-.89,2.261.944.944,0,0,0-.444.445,2.757,2.757,0,0,1-2.261.889,3.5,3.5,0,0,1-3.543-3.29,3.27,3.27,0,0,1,1.041-2.807,3.765,3.765,0,0,1,4.255-.622Z"
    transform="translate(-193.542 -1410.395)"
    fill="#f5f1ea"
  />
</svg>